<svg id="Layer_1" data-name="Layer 1" xmlns="http://www.w3.org/2000/svg" viewBox="0 0 1512 758"><defs><style>.cls-1,.cls-2{fill:none;stroke:#000;stroke-miterlimit:10;stroke-width:4.5px;}.cls-1{opacity:0.69;}</style></defs><path class="cls-1" d="M983.7,758.5,809.5,221.07a120.24,120.24,0,0,1-56.24.19l-175,537.24Z"/><path class="cls-1" d="M882.6,167.93l586.9,427V104.5h-569c0,.17,0,.33,0,.5A119,119,0,0,1,882.6,167.93Z"/><path class="cls-1" d="M872,182.47a119.9,119.9,0,0,1-45.37,33l176,543H1469.5V617.23Z"/><path class="cls-1" d="M736.12,215.78a119.86,119.86,0,0,1-45.83-33L38.5,655.64V758.5H559.35Z"/><path class="cls-1" d="M679.63,168.29A118.9,118.9,0,0,1,661.5,105c0-.17,0-.33,0-.5H38.5V633.4Z"/><circle class="cls-2" cx="780.5" cy="104.5" r="104"/></svg>